<svg width="568" height="401" viewBox="0 0 568 401" fill="none" xmlns="http://www.w3.org/2000/svg">
<path fill-rule="evenodd" clip-rule="evenodd" d="M0.666016 200.665C0.666016 182.256 15.5899 167.332 33.9993 167.332H533.999C552.409 167.332 567.333 182.256 567.333 200.665C567.333 219.075 552.409 233.999 533.999 233.999H33.9993C15.5899 233.999 0.666016 219.075 0.666016 200.665Z" fill="black"/>
<path fill-rule="evenodd" clip-rule="evenodd" d="M0.666016 367.333C0.666016 348.924 15.5899 334 33.9993 334H533.999C552.409 334 567.333 348.924 567.333 367.333C567.333 385.743 552.409 400.667 533.999 400.667H33.9993C15.5899 400.667 0.666016 385.743 0.666016 367.333Z" fill="black"/>
<path fill-rule="evenodd" clip-rule="evenodd" d="M0.666016 33.9993C0.666016 15.5899 15.5899 0.666016 33.9993 0.666016H533.999C552.409 0.666016 567.333 15.5899 567.333 33.9993C567.333 52.4088 552.409 67.3327 533.999 67.3327H33.9993C15.5899 67.3327 0.666016 52.4088 0.666016 33.9993Z" fill="black"/>
</svg>
