<svg width="50" height="50" viewBox="0 0 50 50" fill="none" xmlns="http://www.w3.org/2000/svg">
<path d="M39.1673 39.1667C39.6276 39.1667 40.0007 38.7936 40.0007 38.3333C40.0007 37.8731 39.6276 37.5 39.1673 37.5C38.7071 37.5 38.334 37.8731 38.334 38.3333C38.334 38.7936 38.7071 39.1667 39.1673 39.1667Z" fill="#EF74AC"/>
<path d="M3.90352 35.834H1.66602V38.334H3.33268C3.33391 37.4685 3.52896 36.6142 3.90352 35.834Z" fill="#EF74AC"/>
<path d="M34.166 18.334V25.0007H42.9577L39.846 18.334H34.166Z" fill="#EF74AC"/>
<path d="M47.5007 27.495C47.5 27.0713 47.4073 26.6527 47.229 26.2683L42.1948 15.4808C42.1273 15.3375 42.0205 15.2163 41.8869 15.1312C41.7532 15.0461 41.5982 15.0006 41.4398 15H31.6673C31.4463 15 31.2343 15.0878 31.0781 15.2441C30.9218 15.4004 30.834 15.6123 30.834 15.8333V34.1667H35.0932C36.1803 33.0986 37.6433 32.5001 39.1673 32.5001C40.6913 32.5001 42.1544 33.0986 43.2415 34.1667H47.5007V27.495ZM37.5007 30H35.0007C34.7796 30 34.5677 29.9122 34.4114 29.7559C34.2551 29.5996 34.1673 29.3877 34.1673 29.1667C34.1673 28.9457 34.2551 28.7337 34.4114 28.5774C34.5677 28.4211 34.7796 28.3333 35.0007 28.3333H37.5007C37.7217 28.3333 37.9336 28.4211 38.0899 28.5774C38.2462 28.7337 38.334 28.9457 38.334 29.1667C38.334 29.3877 38.2462 29.5996 38.0899 29.7559C37.9336 29.9122 37.7217 30 37.5007 30ZM44.3632 25.8958C44.2132 26.1325 44.0058 26.3272 43.7603 26.462C43.5148 26.5968 43.2391 26.6672 42.959 26.6667H34.1673C33.7253 26.6667 33.3014 26.4911 32.9888 26.1785C32.6762 25.866 32.5007 25.442 32.5007 25V18.3333C32.5007 17.8913 32.6762 17.4674 32.9888 17.1548C33.3014 16.8423 33.7253 16.6667 34.1673 16.6667H39.8473C40.1647 16.6666 40.4754 16.7572 40.743 16.9277C41.0107 17.0982 41.2241 17.3415 41.3582 17.6292L44.469 24.2958C44.5881 24.5497 44.6408 24.8297 44.6223 25.1095C44.6038 25.3893 44.5146 25.6598 44.3632 25.8958Z" fill="#EF74AC"/>
<path d="M39.1667 34.166C38.3426 34.166 37.537 34.4104 36.8518 34.8682C36.1666 35.3261 35.6325 35.9768 35.3172 36.7382C35.0018 37.4995 34.9193 38.3373 35.0801 39.1456C35.2408 39.9538 35.6377 40.6962 36.2204 41.279C36.8031 41.8617 37.5455 42.2585 38.3538 42.4193C39.162 42.5801 39.9998 42.4975 40.7612 42.1822C41.5225 41.8668 42.1733 41.3328 42.6311 40.6476C43.089 39.9624 43.3333 39.1568 43.3333 38.3327C43.332 37.228 42.8926 36.169 42.1115 35.3879C41.3304 34.6068 40.2713 34.1673 39.1667 34.166ZM39.1667 40.8327C38.6722 40.8327 38.1889 40.6861 37.7777 40.4114C37.3666 40.1367 37.0462 39.7462 36.857 39.2894C36.6678 38.8326 36.6182 38.3299 36.7147 37.845C36.8112 37.36 37.0493 36.9145 37.3989 36.5649C37.7485 36.2153 38.194 35.9772 38.6789 35.8807C39.1639 35.7843 39.6666 35.8338 40.1234 36.023C40.5802 36.2122 40.9706 36.5326 41.2453 36.9438C41.52 37.3549 41.6667 37.8382 41.6667 38.3327C41.6667 38.9957 41.4033 39.6316 40.9344 40.1004C40.4656 40.5693 39.8297 40.8327 39.1667 40.8327Z" fill="#EF74AC"/>
<path d="M45.0005 38.334H48.3339V35.834H44.4297C44.8042 36.6142 44.9993 37.4685 45.0005 38.334Z" fill="#EF74AC"/>
<path d="M9.16667 32.5C10.6908 32.4996 12.154 33.0982 13.2408 34.1667H29.1667V10C29.1667 9.33696 28.9033 8.70107 28.4344 8.23223C27.9656 7.76339 27.3297 7.5 26.6667 7.5H5C4.33696 7.5 3.70107 7.76339 3.23223 8.23223C2.76339 8.70107 2.5 9.33696 2.5 10V34.1667H5.0925C6.17934 33.0982 7.64256 32.4996 9.16667 32.5Z" fill="#EF74AC"/>
<path d="M9.16667 42.4994C9.99076 42.4994 10.7963 42.255 11.4815 41.7971C12.1667 41.3393 12.7008 40.6886 13.0162 39.9272C13.3315 39.1658 13.414 38.3281 13.2533 37.5198C13.0925 36.7116 12.6957 35.9691 12.1129 35.3864C11.5302 34.8037 10.7878 34.4069 9.97954 34.2461C9.17129 34.0853 8.33351 34.1678 7.57215 34.4832C6.81079 34.7986 6.16005 35.3326 5.70221 36.0178C5.24437 36.703 5 37.5086 5 38.3327C5.00132 39.4373 5.44073 40.4964 6.22185 41.2775C7.00296 42.0586 8.062 42.498 9.16667 42.4994ZM9.16667 35.8327C9.66112 35.8327 10.1445 35.9793 10.5556 36.254C10.9667 36.5287 11.2871 36.9192 11.4764 37.376C11.6656 37.8328 11.7151 38.3355 11.6186 38.8204C11.5222 39.3054 11.2841 39.7508 10.9344 40.1005C10.5848 40.4501 10.1393 40.6882 9.65439 40.7846C9.16944 40.8811 8.66677 40.8316 8.20996 40.6424C7.75314 40.4532 7.3627 40.1327 7.08799 39.7216C6.81329 39.3105 6.66667 38.8271 6.66667 38.3327C6.66667 37.6696 6.93006 37.0338 7.3989 36.5649C7.86774 36.0961 8.50363 35.8327 9.16667 35.8327Z" fill="#EF74AC"/>
<path d="M15.0005 38.334H33.3339C33.3351 37.4685 33.5301 36.6142 33.9047 35.834H14.4297C14.8042 36.6142 14.9993 37.4685 15.0005 38.334Z" fill="#EF74AC"/>
<path d="M9.16732 39.1667C9.62756 39.1667 10.0007 38.7936 10.0007 38.3333C10.0007 37.8731 9.62756 37.5 9.16732 37.5C8.70708 37.5 8.33398 37.8731 8.33398 38.3333C8.33398 38.7936 8.70708 39.1667 9.16732 39.1667Z" fill="#EF74AC"/>
</svg>
