<svg width="21" height="21" viewBox="0 0 21 21" fill="none" xmlns="http://www.w3.org/2000/svg">
<path d="M11.3295 10.6113L19.8226 2.11818C19.9081 2.03851 19.9767 1.94244 20.0243 1.8357C20.0718 1.72895 20.0974 1.61372 20.0995 1.49688C20.1015 1.38004 20.08 1.26398 20.0363 1.15562C19.9925 1.04727 19.9274 0.948837 19.8447 0.866204C19.7621 0.783571 19.6637 0.718429 19.5553 0.674662C19.447 0.630896 19.3309 0.609402 19.2141 0.611464C19.0972 0.613525 18.982 0.6391 18.8752 0.686661C18.7685 0.734223 18.6724 0.802797 18.5928 0.888294L10.0996 9.38145L1.60646 0.888294C1.4415 0.734581 1.22331 0.6509 0.997872 0.654877C0.77243 0.658855 0.557334 0.750181 0.397898 0.909617C0.238463 1.06905 0.147136 1.28415 0.143158 1.50959C0.139181 1.73503 0.222863 1.95322 0.376575 2.11818L8.86973 10.6113L0.376575 19.1045C0.291078 19.1841 0.222504 19.2802 0.174943 19.387C0.127381 19.4937 0.101806 19.6089 0.0997448 19.7258C0.0976833 19.8426 0.119177 19.9587 0.162943 20.067C0.20671 20.1754 0.271853 20.2738 0.354485 20.3565C0.437118 20.4391 0.535548 20.5042 0.643903 20.548C0.752258 20.5918 0.868319 20.6133 0.985161 20.6112C1.102 20.6091 1.21723 20.5836 1.32398 20.536C1.43072 20.4884 1.52679 20.4199 1.60646 20.3344L10.0996 11.8412L18.5928 20.3344C18.6724 20.4199 18.7685 20.4884 18.8752 20.536C18.982 20.5836 19.0972 20.6091 19.2141 20.6112C19.3309 20.6133 19.447 20.5918 19.5553 20.548C19.6637 20.5042 19.7621 20.4391 19.8447 20.3565C19.9274 20.2738 19.9925 20.1754 20.0363 20.067C20.08 19.9587 20.1015 19.8426 20.0995 19.7258C20.0974 19.6089 20.0718 19.4937 20.0243 19.387C19.9767 19.2802 19.9081 19.1841 19.8226 19.1045L11.3295 10.6113Z" fill="#66CCCC"/>
</svg>
