<svg width="50" height="50" viewBox="0 0 50 50" fill="none" xmlns="http://www.w3.org/2000/svg">
<path d="M1.39775 1.39775C2.293 0.50277 3.50705 0 4.77293 0C6.03882 0 7.25287 0.50277 8.14812 1.39775L25.0288 18.2784L41.9095 1.39775C42.8099 0.528134 44.0158 0.0469469 45.2675 0.0578239C46.5192 0.068701 47.7166 0.570773 48.6017 1.4559C49.4869 2.34103 49.9889 3.5384 49.9998 4.79012C50.0107 6.04183 49.5295 7.24774 48.6599 8.14812L31.7792 25.0288L48.6599 41.9095C49.5295 42.8099 50.0107 44.0158 49.9998 45.2675C49.9889 46.5192 49.4869 47.7166 48.6017 48.6017C47.7166 49.4869 46.5192 49.9889 45.2675 49.9998C44.0158 50.0107 42.8099 49.5295 41.9095 48.6599L25.0288 31.7792L8.14812 48.6599C7.24774 49.5295 6.04183 50.0107 4.79012 49.9998C3.5384 49.9889 2.34103 49.4869 1.4559 48.6017C0.570773 47.7166 0.068701 46.5192 0.0578239 45.2675C0.0469469 44.0158 0.528134 42.8099 1.39775 41.9095L18.2784 25.0288L1.39775 8.14812C0.50277 7.25287 0 6.03882 0 4.77293C0 3.50705 0.50277 2.293 1.39775 1.39775Z" fill="black"/>
</svg>
