<svg width="7" height="24" viewBox="0 0 7 24" fill="none" xmlns="http://www.w3.org/2000/svg">
<path d="M3.78035 19.1C4.69912 19.1 5.46391 18.3961 5.54129 17.4805L6.73581 3.21409C6.80534 2.38667 6.5248 1.56872 5.96317 0.957807C5.40222 0.347678 4.61007 0 3.78035 0C2.95063 0 2.15847 0.347678 1.59748 0.957807C1.03575 1.56872 0.755349 2.38667 0.824885 3.21409L2.0194 17.4805C2.09678 18.3961 2.86157 19.1 3.78035 19.1Z" fill="#E26D6D"/>
<path d="M3.7805 20.1504C2.71716 20.1504 1.85547 21.012 1.85547 22.0754C1.85547 23.1387 2.71716 24.0004 3.7805 24.0004C4.84383 24.0004 5.70553 23.1387 5.70553 22.0754C5.70553 21.012 4.84383 20.1504 3.7805 20.1504Z" fill="#E26D6D"/>
</svg>
