<svg width="49" height="48" viewBox="0 0 49 48" fill="none" xmlns="http://www.w3.org/2000/svg">
<path d="M3.125 11.5H14.0633C14.6849 11.5 15.281 11.7469 15.7206 12.1865C16.1601 12.626 16.407 13.2221 16.407 13.8438V22.4383C16.407 23.0599 16.1601 23.656 15.7206 24.0956C15.281 24.5351 14.6849 24.782 14.0633 24.782H3.12578C2.81793 24.7821 2.51307 24.7216 2.22863 24.6038C1.94418 24.4861 1.68571 24.3135 1.46799 24.0958C1.25027 23.8782 1.07757 23.6198 0.959732 23.3354C0.841899 23.051 0.78125 22.7461 0.78125 22.4383V13.8445C0.78125 13.2229 1.02818 12.6268 1.46772 12.1872C1.90726 11.7477 2.5034 11.5 3.125 11.5Z" fill="#EF74AC"/>
<path d="M25.7832 8.375C27.9406 8.375 29.6895 6.62611 29.6895 4.46875C29.6895 2.31139 27.9406 0.5625 25.7832 0.5625C23.6258 0.5625 21.877 2.31139 21.877 4.46875C21.877 6.62611 23.6258 8.375 25.7832 8.375Z" fill="#EF74AC"/>
<path d="M9.37695 27.0086C9.37708 28.2217 9.85409 29.3862 10.7051 30.2508H23.4059V27.0047C23.4059 26.7983 23.3239 26.6004 23.178 26.4545C23.032 26.3085 22.8341 26.2266 22.6277 26.2266H10.1543C9.94764 26.2276 9.74981 26.3105 9.60412 26.457C9.45843 26.6036 9.37674 26.8019 9.37695 27.0086Z" fill="#EF74AC"/>
<path d="M48.2321 39.1247C47.8512 37.7161 46.9969 36.4816 45.8128 35.6288C44.6288 34.776 43.1872 34.3569 41.7305 34.4419C41.8529 33.9855 41.9159 33.5152 41.918 33.0427C41.9031 32.2936 41.7066 31.5592 41.3453 30.9027C40.984 30.2463 40.4687 29.6874 39.8438 29.274C38.1664 28.1607 36.9117 25.3302 36.7219 22.3537H38.2188C38.8374 22.3539 39.4308 22.1087 39.8688 21.672C40.3069 21.2352 40.5538 20.6425 40.5555 20.024V18.4724C40.5538 17.8538 40.3069 17.2612 39.8688 16.8244C39.4308 16.3877 38.8374 16.1425 38.2188 16.1427H32.875C28.3578 14.8419 26.9985 13.3435 26.1867 12.4458C26.1702 12.4277 26.1538 12.4095 26.1375 12.3911C26.2186 11.7922 26.1101 11.1829 25.8274 10.6487C25.5446 10.1144 25.1018 9.68209 24.561 9.41224C24.1748 9.22788 23.752 9.13304 23.3241 9.13479C22.8962 9.13654 22.4742 9.23483 22.0896 9.42234C21.705 9.60985 21.3676 9.88175 21.1027 10.2178C20.8377 10.5538 20.652 10.9453 20.5594 11.363L18.318 22.074C18.2521 22.3921 18.2533 22.7204 18.3218 23.038C18.3902 23.3556 18.5243 23.6554 18.7154 23.9181C18.9066 24.1808 19.1505 24.4006 19.4316 24.5635C19.7127 24.7263 20.0247 24.8286 20.3477 24.8638L24.1891 25.2888C24.387 25.3099 24.5693 25.4063 24.6982 25.5579C24.8272 25.7095 24.893 25.9049 24.8821 26.1037L24.2774 36.3427C23.6491 35.7936 23.2023 35.0667 22.9963 34.2581C22.7902 33.4495 22.8346 32.5974 23.1235 31.8146H11.1821C9.92269 33.9013 7.90628 37.8138 8.7219 40.3583C8.874 40.8374 9.13831 41.2732 9.49284 41.6295C9.84738 41.9858 10.2819 42.2523 10.7602 42.4068C11.1115 42.514 11.48 42.5538 11.8461 42.524C11.9356 43.7869 12.5004 44.9691 13.4267 45.8322C14.3531 46.6953 15.5722 47.1752 16.8383 47.1752C18.1044 47.1752 19.3235 46.6953 20.2499 45.8322C21.1763 44.9691 21.7411 43.7869 21.8305 42.524H35.2211C35.3513 42.5168 35.4787 42.4839 35.596 42.4272C35.7133 42.3704 35.8183 42.291 35.9047 42.1935C35.9996 42.6549 36.1538 43.1021 36.3633 43.524C36.422 43.6468 36.5119 43.7521 36.624 43.8293C36.7361 43.9066 36.8665 43.9531 37.0022 43.9641C37.1379 43.9752 37.2741 43.9505 37.3972 43.8924C37.5204 43.8344 37.6261 43.745 37.7039 43.6333C37.7953 43.5021 37.8938 43.3755 37.9977 43.2497C38.1021 43.9238 38.3434 44.5694 38.7066 45.1468C39.0699 45.7242 39.5475 46.2211 40.1099 46.6071C40.6724 46.993 41.3079 47.2598 41.9773 47.3909C42.6467 47.5221 43.3359 47.5149 44.0024 47.3698C44.6689 47.2247 45.2987 46.9447 45.853 46.5471C46.4073 46.1495 46.8744 45.6427 47.2255 45.0579C47.5766 44.473 47.8044 43.8225 47.8947 43.1464C47.985 42.4703 47.9361 41.7828 47.7508 41.1263C47.9523 41.1044 48.1371 41.004 48.2651 40.8468C48.3931 40.6896 48.4539 40.4882 48.4344 40.2865C48.4046 39.8935 48.3373 39.5045 48.2321 39.1247ZM16.8383 45.6232C15.9847 45.6232 15.1615 45.3061 14.5285 44.7334C13.8955 44.1607 13.4978 43.3733 13.4125 42.524H20.2641C20.1789 43.3733 19.7812 44.1607 19.1481 44.7334C18.5151 45.3061 17.6919 45.6232 16.8383 45.6232ZM31.9844 37.0896H28.9492L30.2914 24.4021C30.345 23.8883 30.2263 23.3712 29.9539 22.9322C29.6815 22.4932 29.2709 22.1572 28.7867 21.9771L24.9586 20.5482C24.7826 20.4828 24.6364 20.3558 24.547 20.1907C24.4576 20.0256 24.4312 19.8336 24.4727 19.6505L25.0547 17.1388C27.0463 18.727 29.4509 19.7119 31.9844 19.9771V37.0896ZM43.3797 45.8536C42.8615 45.9217 42.3346 45.8711 41.8388 45.7055C41.3431 45.54 40.8914 45.2639 40.5181 44.8982C40.1447 44.5324 39.8594 44.0865 39.6837 43.5943C39.508 43.102 39.4465 42.5763 39.5039 42.0568L39.7414 41.7599C41.5305 40.6508 43.6624 40.2314 45.7383 40.5802L45.9227 40.7232C46.2063 41.2139 46.3643 41.7671 46.3824 42.3336C46.4005 42.9001 46.2783 43.4623 46.0266 43.9701C45.7749 44.478 45.4015 44.9157 44.9397 45.2443C44.4779 45.5729 43.942 45.7822 43.3797 45.8536Z" fill="#EF74AC"/>
</svg>
