<svg width="44" height="44" viewBox="0 0 44 44" fill="none" xmlns="http://www.w3.org/2000/svg">
<g clip-path="url(#clip0_2749_143)">
<path fill-rule="evenodd" clip-rule="evenodd" d="M22 42.5C33.3218 42.5 42.5 33.3218 42.5 22C42.5 10.6782 33.3218 1.5 22 1.5C10.6782 1.5 1.5 10.6782 1.5 22C1.5 33.3218 10.6782 42.5 22 42.5ZM44 22C44 34.1503 34.1503 44 22 44C9.84974 44 8.61091e-07 34.1503 1.9233e-06 22C2.98551e-06 9.84973 9.84974 -2.98551e-06 22 -1.9233e-06C34.1503 -8.61091e-07 44 9.84974 44 22Z" fill="#F987B9"/>
<path fill-rule="evenodd" clip-rule="evenodd" d="M25.5222 30.0383C25.2249 30.3267 24.7501 30.3195 24.4617 30.0222L17.1859 22.522C16.9036 22.2311 16.9036 21.7685 17.1859 21.4776L24.4617 13.9778C24.7501 13.6805 25.2249 13.6733 25.5222 13.9617C25.8195 14.2501 25.8267 14.7249 25.5383 15.0222L18.7691 21.9998L25.5383 28.9778C25.8267 29.2751 25.8195 29.7499 25.5222 30.0383Z" fill="#F987B9"/>
</g>
<defs>
<clipPath id="clip0_2749_143">
<rect width="44" height="44" fill="white" transform="translate(44 44) rotate(-180)"/>
</clipPath>
</defs>
</svg>
