<svg width="50" height="50" viewBox="0 0 50 50" fill="none" xmlns="http://www.w3.org/2000/svg">
<g clip-path="url(#clip0_675_168)">
<path d="M26.0355 21.8928C25.4862 22.4421 24.5135 22.4421 23.9642 21.8928L18.7843 16.7129L16.7129 18.7843L21.8928 23.9642C22.4649 24.5363 22.4646 25.4637 21.8928 26.0355L16.7129 31.214L18.7843 33.2868L23.9642 28.1069C24.5363 27.5348 25.4637 27.5351 26.0355 28.1069L31.214 33.2868L33.2868 31.214L28.1069 26.0355C27.5348 25.4634 27.5351 24.536 28.1069 23.9642L33.2868 18.7843L31.214 16.7129L26.0355 21.8928Z" fill="#EF74AC"/>
<path d="M25 0C11.2686 0 0 11.2686 0 25C0 38.7314 11.2686 50 25 50C38.7314 50 50 38.7314 50 25C50 11.2686 38.7314 0 25 0ZM36.394 30.1784C36.9662 30.7506 36.9659 31.6779 36.394 32.2498L32.2498 36.394C31.6776 36.9662 30.7503 36.9659 30.1784 36.394L25 31.2142L19.8201 36.394C19.2479 36.9662 18.3206 36.9659 17.7487 36.394L13.606 32.2498C13.0338 31.6776 13.0338 30.7506 13.606 30.1784L18.7858 25L13.606 19.8201C13.0338 19.2479 13.0338 18.3209 13.606 17.7487L17.7487 13.606C18.3209 13.0338 19.2479 13.0338 19.8201 13.606L25 18.7858L30.1784 13.606C30.7506 13.0338 31.6776 13.0338 32.2498 13.606L36.394 17.7487C36.9662 18.3209 36.9659 19.2482 36.394 19.8201L31.2142 25L36.394 30.1784Z" fill="#EF74AC"/>
</g>
<defs>
<clipPath id="clip0_675_168">
<rect width="50" height="50" fill="white"/>
</clipPath>
</defs>
</svg>
