<svg width="50" height="50" viewBox="0 0 50 50" fill="none" xmlns="http://www.w3.org/2000/svg">
<g clip-path="url(#clip0_675_69)">
<path d="M11.7181 10.2532V0.857422L0.857422 11.7181H10.2532C11.0609 11.7181 11.7181 11.0609 11.7181 10.2532Z" fill="#EF74AC"/>
<path d="M13.1836 41.2109C15.6106 41.2109 17.5781 39.2434 17.5781 36.8164C17.5781 34.3894 15.6106 32.4219 13.1836 32.4219C10.7566 32.4219 8.78906 34.3894 8.78906 36.8164C8.78906 39.2434 10.7566 41.2109 13.1836 41.2109Z" fill="#EF74AC"/>
<path d="M46.582 43.1641H31.9336C30.0459 43.1641 28.5156 44.6943 28.5156 46.582V50H48.5352C49.3441 50 50 49.3441 50 48.5352V46.582C50 44.6943 48.4697 43.1641 46.582 43.1641Z" fill="#EF74AC"/>
<path d="M33.2374 40.2344L31.9457 27.3181C31.7395 25.2562 32.4188 23.1924 33.8092 21.656C34.9346 20.4123 36.4503 19.5984 38.0859 19.3332V1.46484C38.0859 0.655859 37.4301 0 36.6211 0H14.6484V10.2539C14.6484 12.6771 12.6771 14.6484 10.2539 14.6484H0V48.5352C0 49.3441 0.655859 50 1.46484 50H25.5859V46.582C25.5859 43.0819 28.4335 40.2344 31.9336 40.2344H33.2374ZM19.043 5.85938H30.7617C31.5707 5.85938 32.2266 6.51523 32.2266 7.32422C32.2266 8.1332 31.5707 8.78906 30.7617 8.78906H19.043C18.234 8.78906 17.5781 8.1332 17.5781 7.32422C17.5781 6.51523 18.234 5.85938 19.043 5.85938ZM13.1836 44.1406C9.14502 44.1406 5.85938 40.855 5.85938 36.8164C5.85938 32.7778 9.14502 29.4922 13.1836 29.4922C17.2222 29.4922 20.5078 32.7778 20.5078 36.8164C20.5078 40.855 17.2222 44.1406 13.1836 44.1406ZM27.832 26.3672H7.32422C6.51523 26.3672 5.85938 25.7113 5.85938 24.9023C5.85938 24.0934 6.51523 23.4375 7.32422 23.4375H27.832C28.641 23.4375 29.2969 24.0934 29.2969 24.9023C29.2969 25.7113 28.641 26.3672 27.832 26.3672ZM27.832 20.5078H7.32422C6.51523 20.5078 5.85938 19.852 5.85938 19.043C5.85938 18.234 6.51523 17.5781 7.32422 17.5781H27.832C28.641 17.5781 29.2969 18.234 29.2969 19.043C29.2969 19.852 28.641 20.5078 27.832 20.5078ZM30.7617 14.6484H19.043C18.234 14.6484 17.5781 13.9926 17.5781 13.1836C17.5781 12.3746 18.234 11.7188 19.043 11.7188H30.7617C31.5707 11.7188 32.2266 12.3746 32.2266 13.1836C32.2266 13.9926 31.5707 14.6484 30.7617 14.6484Z" fill="#EF74AC"/>
<path d="M34.8603 27.0266L36.1811 40.2344H42.3334L43.6542 27.0266C43.9144 24.4252 41.8716 22.168 39.2572 22.168C36.6429 22.168 34.6001 24.4252 34.8603 27.0266Z" fill="#EF74AC"/>
</g>
<defs>
<clipPath id="clip0_675_69">
<rect width="50" height="50" fill="white"/>
</clipPath>
</defs>
</svg>
