<svg width="50" height="50" viewBox="0 0 50 50" fill="none" xmlns="http://www.w3.org/2000/svg">
<path d="M48.2704 25.8982C49.0729 25.0743 49.5852 24.0113 49.7297 22.8702C49.8742 21.7291 49.643 20.572 49.0712 19.574L39.3993 2.82399C38.6991 1.61387 37.5473 0.73102 36.1969 0.369233C34.8464 0.00744604 33.4075 0.196288 32.1962 0.894307L3.59851 17.4021C3.4813 17.4736 3.39277 17.5838 3.34824 17.7137C3.3037 17.8436 3.30596 17.9849 3.35463 18.1133C3.40329 18.2417 3.4953 18.349 3.61473 18.4168C3.73417 18.4845 3.87352 18.5083 4.00867 18.4842C4.42553 18.4018 4.84938 18.3599 5.27429 18.3592H40.8212C42.5301 18.3608 44.1685 19.0404 45.3769 20.2488C46.5852 21.4571 47.2648 23.0956 47.2665 24.8045V25.4881C47.2681 25.6037 47.3036 25.7163 47.3687 25.8118C47.4339 25.9074 47.5257 25.9816 47.6327 26.0254C47.7397 26.0691 47.8573 26.0804 47.9707 26.0578C48.0841 26.0351 48.1883 25.9797 48.2704 25.8982ZM30.9618 17.1873H18.7743L39.4462 5.24978L42.493 10.5271L30.9618 17.1873Z" fill="#EF74AC"/>
<path d="M5.27344 50H40.8203C42.2184 49.9984 43.5589 49.4424 44.5475 48.4537C45.5361 47.4651 46.0922 46.1247 46.0938 44.7266V24.8047C46.0922 23.4066 45.5361 22.0661 44.5475 21.0775C43.5589 20.0889 42.2184 19.5328 40.8203 19.5312H5.27344C3.87531 19.5328 2.53489 20.0889 1.54627 21.0775C0.557642 22.0661 0.00155089 23.4066 0 24.8047L0 44.7266C0.00155089 46.1247 0.557642 47.4651 1.54627 48.4537C2.53489 49.4424 3.87531 49.9984 5.27344 50ZM34.375 40.4297H39.4531C39.8157 40.4297 40.1635 40.5737 40.4199 40.8301C40.6763 41.0865 40.8203 41.4343 40.8203 41.7969C40.8203 42.1595 40.6763 42.5072 40.4199 42.7636C40.1635 43.02 39.8157 43.1641 39.4531 43.1641H34.375C34.0124 43.1641 33.6646 43.02 33.4083 42.7636C33.1519 42.5072 33.0078 42.1595 33.0078 41.7969C33.0078 41.4343 33.1519 41.0865 33.4083 40.8301C33.6646 40.5737 34.0124 40.4297 34.375 40.4297ZM20.3125 40.4297H25.7812C26.1439 40.4297 26.4916 40.5737 26.748 40.8301C27.0044 41.0865 27.1484 41.4343 27.1484 41.7969C27.1484 42.1595 27.0044 42.5072 26.748 42.7636C26.4916 43.02 26.1439 43.1641 25.7812 43.1641H20.3125C19.9499 43.1641 19.6021 43.02 19.3458 42.7636C19.0894 42.5072 18.9453 42.1595 18.9453 41.7969C18.9453 41.4343 19.0894 41.0865 19.3458 40.8301C19.6021 40.5737 19.9499 40.4297 20.3125 40.4297ZM5.27344 27.1484C5.27344 26.5268 5.52037 25.9307 5.95991 25.4912C6.39944 25.0516 6.99559 24.8047 7.61719 24.8047H10.3516C10.9732 24.8047 11.5693 25.0516 12.0088 25.4912C12.4484 25.9307 12.6953 26.5268 12.6953 27.1484V29.8828C12.6953 30.5044 12.4484 31.1006 12.0088 31.5401C11.5693 31.9796 10.9732 32.2266 10.3516 32.2266H7.61719C6.99559 32.2266 6.39944 31.9796 5.95991 31.5401C5.52037 31.1006 5.27344 30.5044 5.27344 29.8828V27.1484ZM6.64062 40.4297H11.7188C12.0814 40.4297 12.4291 40.5737 12.6855 40.8301C12.9419 41.0865 13.0859 41.4343 13.0859 41.7969C13.0859 42.1595 12.9419 42.5072 12.6855 42.7636C12.4291 43.02 12.0814 43.1641 11.7188 43.1641H6.64062C6.27802 43.1641 5.93027 43.02 5.67388 42.7636C5.41748 42.5072 5.27344 42.1595 5.27344 41.7969C5.27344 41.4343 5.41748 41.0865 5.67388 40.8301C5.93027 40.5737 6.27802 40.4297 6.64062 40.4297Z" fill="#EF74AC"/>
</svg>
