<svg width="22" height="22" viewBox="0 0 22 22" fill="none" xmlns="http://www.w3.org/2000/svg">
<path d="M10.7652 1.36922C10.8453 1.15042 11.1547 1.15042 11.2348 1.36922L13.5699 7.75115C13.6746 8.03739 13.9422 8.23178 14.2468 8.24293L21.0379 8.49162C21.2707 8.50015 21.3664 8.79445 21.183 8.93819L15.835 13.1311C15.5952 13.3192 15.493 13.6337 15.5765 13.9269L17.4386 20.4625C17.5024 20.6865 17.2521 20.8684 17.0587 20.7385L11.4183 16.9479C11.1654 16.7779 10.8346 16.7779 10.5817 16.9479L4.94132 20.7385C4.74795 20.8684 4.49761 20.6866 4.56144 20.4625L6.42351 13.9269C6.50703 13.6337 6.40483 13.3192 6.16496 13.1311L0.816975 8.93819C0.633627 8.79445 0.729251 8.50015 0.962077 8.49162L7.75323 8.24293C8.05783 8.23178 8.32539 8.03739 8.43012 7.75115L10.7652 1.36922Z" fill="#71ded9" stroke="#71ded9" stroke-width="0.5"/>
</svg>
