<svg width="30" height="30" viewBox="0 0 30 30" fill="none" xmlns="http://www.w3.org/2000/svg">
<path d="M15 30C23.2843 30 30 23.2843 30 15C30 6.71573 23.2843 0 15 0C6.71573 0 0 6.71573 0 15C0 23.2843 6.71573 30 15 30Z" fill="#039BE5"/>
<path d="M6.75934 13.6444L21.2219 8.06825C21.8931 7.82575 22.4794 8.232 22.2619 9.24695L22.2631 9.24575L19.8006 20.8469C19.6181 21.6694 19.1294 21.8694 18.4456 21.4819L14.6956 18.7182L12.8869 20.4607C12.6869 20.6607 12.5181 20.8294 12.1306 20.8294L12.3969 17.0132L19.3469 10.7344C19.6494 10.4682 19.2794 10.3182 18.8806 10.5832L10.2919 15.9907L6.58934 14.8357C5.78559 14.5807 5.76809 14.0319 6.75934 13.6444Z" fill="white"/>
</svg>
