<svg width="31" height="34" viewBox="0 0 31 34" fill="none" xmlns="http://www.w3.org/2000/svg">
<g clip-path="url(#clip0_2768_157)">
<path fill-rule="evenodd" clip-rule="evenodd" d="M0.0371094 16.9863C0.0371094 18.5471 0.851617 19.8125 1.85636 19.8125H29.1451C30.1498 19.8125 30.9644 18.5471 30.9644 16.9863C30.9644 15.4253 30.1498 14.1599 29.1451 14.1599H1.85636C0.851617 14.1599 0.0371094 15.4253 0.0371094 16.9863Z" fill="black"/>
<path fill-rule="evenodd" clip-rule="evenodd" d="M0.0371094 2.8554C0.0371094 4.41626 0.851617 5.68164 1.85636 5.68164H29.1451C30.1498 5.68164 30.9644 4.41626 30.9644 2.8554C30.9644 1.29445 30.1498 0.0290776 29.1451 0.0290776H1.85636C0.851617 0.0290776 0.0371094 1.29445 0.0371094 2.8554Z" fill="black"/>
<path fill-rule="evenodd" clip-rule="evenodd" d="M0.0371094 31.1171C0.0371094 32.678 0.851617 33.9434 1.85636 33.9434H29.1451C30.1498 33.9434 30.9644 32.678 30.9644 31.1171C30.9644 29.5562 30.1498 28.2908 29.1451 28.2908H1.85636C0.851617 28.2908 0.0371094 29.5562 0.0371094 31.1171Z" fill="black"/>
</g>
</svg>
