<svg width="20" height="20" viewBox="0 0 20 20" fill="none" xmlns="http://www.w3.org/2000/svg">
<path d="M6.66676 20H2.22225C0.994937 20 0 19.0051 0 17.7777V13.3332C0 12.1059 0.994937 11.111 2.22225 11.111H6.66676C7.89408 11.111 8.88902 12.1059 8.88902 13.3332V17.7777C8.88902 19.0051 7.89408 20 6.66676 20Z" fill="#494C4E"/>
<path d="M17.7781 20H13.3336C12.1063 20 11.1113 19.0051 11.1113 17.7777V13.3332C11.1113 12.1059 12.1063 11.111 13.3336 11.111H17.7781C19.0054 11.111 20.0003 12.1059 20.0003 13.3332V17.7777C20.0003 19.0051 19.0054 20 17.7781 20Z" fill="#494C4E"/>
<path d="M17.7781 8.88867H13.3336C12.1063 8.88867 11.1113 7.89373 11.1113 6.66642V2.22191C11.1113 0.994591 12.1063 -0.000346184 13.3336 -0.000346184H17.7781C19.0054 -0.000346184 20.0003 0.994591 20.0003 2.22191V6.66642C20.0003 7.89373 19.0054 8.88867 17.7781 8.88867Z" fill="#494C4E"/>
<path d="M6.66676 8.88867H2.22225C0.994937 8.88867 0 7.89373 0 6.66642V2.22191C0 0.994591 0.994937 -0.000346184 2.22225 -0.000346184H6.66676C7.89408 -0.000346184 8.88902 0.994591 8.88902 2.22191V6.66642C8.88902 7.89373 7.89408 8.88867 6.66676 8.88867Z" fill="#494C4E"/>
</svg>
