<svg width="22" height="25" viewBox="0 0 22 25" fill="none" xmlns="http://www.w3.org/2000/svg">
<path d="M21.9049 20.3399C21.1292 16.984 19.3707 14.1471 17.0424 12.3271C16.583 11.968 15.9869 12.0264 15.5794 12.4715C14.3299 13.8359 12.7833 14.6484 11.1047 14.6484C9.39285 14.6484 7.81876 13.8043 6.55644 12.3913C6.15344 11.9403 5.56035 11.8723 5.09703 12.2231C2.70015 14.0376 0.886023 16.9186 0.0948754 20.3399C-0.117691 21.2577 0.0317137 22.2473 0.49503 23.0106C0.959536 23.773 1.68514 24.2222 2.45535 24.2222H19.5441C20.3149 24.2222 21.0407 23.7748 21.5051 23.0106C21.9692 22.2471 22.1175 21.2587 21.9049 20.3399Z" fill="black"/>
<path d="M17.2222 6.11086C17.2222 9.48593 14.4859 12.2222 11.1108 12.2222C7.73594 12.2222 5 9.48593 5 6.11086C5 2.73548 7.73582 0 11.1108 0C14.4859 0 17.2222 2.73548 17.2222 6.11086Z" fill="black"/>
</svg>
