<svg width="30" height="30" viewBox="0 0 30 30" fill="none" xmlns="http://www.w3.org/2000/svg">
<g clip-path="url(#clip0_675_123)">
<path d="M15 30C23.2843 30 30 23.2843 30 15C30 6.71573 23.2843 0 15 0C6.71573 0 0 6.71573 0 15C0 23.2843 6.71573 30 15 30Z" fill="#0176FF"/>
<path d="M23.6445 20.8706C23.2082 20.932 21.0741 20.8706 20.9633 20.8706C20.4116 20.8777 19.8794 20.667 19.482 20.2842C19.032 19.8513 18.6298 19.374 18.19 18.9206C18.0599 18.783 17.9191 18.6559 17.769 18.5405C17.4178 18.2695 17.0701 18.3308 16.9048 18.745C16.7756 19.1926 16.6855 19.6506 16.6354 20.1138C16.6065 20.5331 16.3405 20.7956 15.8701 20.8246C15.5786 20.8399 15.2871 20.845 14.9991 20.8382C13.9492 20.8315 12.9159 20.5762 11.9837 20.0933C10.9751 19.5313 10.0963 18.7629 9.40475 17.8382C8.26782 16.3859 7.3593 14.7905 6.54793 13.1456C6.50532 13.0638 5.6735 11.2945 5.65305 11.2109C5.57805 10.9314 5.65305 10.6638 5.88316 10.5717C6.02975 10.5155 8.77066 10.5717 8.81668 10.5717C9.02045 10.57 9.21949 10.6331 9.38498 10.752C9.55046 10.8709 9.6738 11.0394 9.73714 11.2331C10.2438 12.5305 10.9375 13.7467 11.7962 14.8433C11.9164 14.99 12.0571 15.1186 12.2138 15.2252C12.4371 15.3769 12.6485 15.324 12.7405 15.0666C12.8496 14.7095 12.9138 14.3402 12.9315 13.9672C12.9468 13.2274 12.9315 12.7399 12.8905 12.0019C12.8633 11.528 12.6962 11.1121 11.9974 10.9791C11.7826 10.9416 11.7638 10.7644 11.9019 10.5871C12.19 10.2189 12.5837 10.1609 13.0252 10.1388C13.6832 10.1013 14.3411 10.1269 14.9991 10.1388H15.1423C15.4286 10.1377 15.7143 10.1669 15.9945 10.2257C16.1602 10.2592 16.3106 10.3454 16.4233 10.4713C16.5361 10.5972 16.6051 10.7562 16.6201 10.9246C16.6538 11.1112 16.668 11.3009 16.6627 11.4905C16.6457 12.2984 16.6065 13.1047 16.5979 13.9127C16.5901 14.2326 16.6193 14.5523 16.6849 14.8655C16.7786 15.295 17.0735 15.4024 17.3667 15.0922C17.7463 14.6912 18.0945 14.2615 18.4082 13.807C18.9628 12.9786 19.4203 12.0893 19.7718 11.1564C19.9627 10.6774 20.1127 10.5717 20.6241 10.5717H23.532C23.7049 10.5687 23.8773 10.5917 24.0434 10.6399C24.1022 10.6554 24.1571 10.6828 24.2048 10.7205C24.2525 10.7581 24.2919 10.8052 24.3206 10.8588C24.3492 10.9125 24.3665 10.9714 24.3713 11.032C24.3761 11.0926 24.3683 11.1535 24.3485 11.2109C24.2053 11.8484 23.861 12.3922 23.4962 12.9155C22.9048 13.7541 22.2809 14.5706 21.6758 15.3956C21.5992 15.505 21.5292 15.6189 21.4661 15.7365C21.2377 16.1473 21.2548 16.3774 21.5854 16.72C22.1138 17.2621 22.678 17.7717 23.1877 18.3308C23.5619 18.7373 23.8996 19.1759 24.1968 19.6416C24.5701 20.2195 24.34 20.7717 23.6445 20.8706Z" fill="white"/>
</g>
<defs>
<clipPath id="clip0_675_123">
<rect width="30" height="30" fill="white"/>
</clipPath>
</defs>
</svg>
