<svg width="50" height="50" viewBox="0 0 50 50" fill="none" xmlns="http://www.w3.org/2000/svg">
<g clip-path="url(#clip0_957_72)">
<path d="M12.9083 13.1917L31.9422 21.1441C32.0524 21.1885 32.1465 21.2654 32.2118 21.3647C32.2772 21.464 32.3107 21.5808 32.3078 21.6996V42.2734C32.3078 42.6952 31.8719 43.0117 31.4359 42.7796L12.395 33.5053C12.2947 33.457 12.2103 33.381 12.1517 33.2863C12.0931 33.1917 12.0629 33.0822 12.0645 32.9709V30.8685H16.1216C16.5694 30.8636 17.0034 30.7125 17.3573 30.4381C17.7112 30.1637 17.9657 29.7811 18.082 29.3486C18.1983 28.9161 18.17 28.4575 18.0014 28.0426C17.8328 27.6277 17.5332 27.2793 17.1482 27.0505H19.4615C19.7293 27.0495 19.9943 26.9959 20.2413 26.8926C20.4883 26.7892 20.7126 26.6383 20.9013 26.4483C21.09 26.2583 21.2394 26.033 21.341 25.7852C21.4427 25.5375 21.4945 25.2721 21.4936 25.0043C21.4954 24.736 21.4443 24.4699 21.3431 24.2213C21.2419 23.9728 21.0926 23.7466 20.9038 23.5559C20.715 23.3651 20.4904 23.2135 20.2429 23.1098C19.9954 23.006 19.7299 22.9521 19.4615 22.9512H17.1552C17.5407 22.7221 17.8406 22.3731 18.009 21.9575C18.1774 21.5419 18.2052 21.0826 18.088 20.6497C17.9708 20.2169 17.7152 19.8343 17.3601 19.5605C17.005 19.2866 16.57 19.1365 16.1216 19.1332H12.0645V13.719C12.0645 13.269 12.5286 12.9948 12.9083 13.1917ZM24.3975 32.1552C24.3288 32.122 24.2542 32.1026 24.178 32.0984C24.1017 32.0942 24.0254 32.1052 23.9535 32.1307C23.8815 32.1562 23.8154 32.1958 23.7588 32.247C23.7023 32.2983 23.6565 32.3603 23.6241 32.4295C23.5606 32.5688 23.5538 32.7273 23.6049 32.8716C23.6561 33.0159 23.7613 33.1347 23.8983 33.2029L28.5531 35.4811C28.8413 35.6217 29.1859 35.4951 29.3265 35.1998C29.3905 35.0613 29.3984 34.9035 29.3485 34.7593C29.2987 34.6152 29.1951 34.4958 29.0593 34.4264L24.3975 32.1552ZM24.3975 35.3897C24.3292 35.3561 24.255 35.3365 24.1791 35.3318C24.1032 35.3271 24.0271 35.3374 23.9552 35.3623C23.8833 35.3871 23.817 35.4259 23.7602 35.4765C23.7034 35.527 23.6571 35.5883 23.6241 35.6569C23.5606 35.7962 23.5538 35.9547 23.6049 36.099C23.6561 36.2433 23.7613 36.3621 23.8983 36.4303L28.5531 38.7085C28.8413 38.8491 29.1859 38.7225 29.3265 38.4272C29.3905 38.2887 29.3984 38.1309 29.3485 37.9867C29.2987 37.8425 29.1951 37.7232 29.0593 37.6538L24.3975 35.3897Z" fill="#EF74AC"/>
<path d="M31.4999 22.2197L12.473 14.2743C12.3538 14.2361 12.2498 14.1611 12.1761 14.06C12.1023 13.9589 12.0625 13.8369 12.0625 13.7118C12.0625 13.5866 12.1023 13.4647 12.1761 13.3636C12.2498 13.2625 12.3538 13.1874 12.473 13.1493V13.1563L16.6005 11.8274L35.8453 19.9697L35.7117 20.4338C35.8453 20.49 35.6132 20.708 35.7328 20.6658L31.9851 22.2127C31.911 22.2491 31.83 22.2692 31.7475 22.2716C31.665 22.2741 31.583 22.2588 31.5069 22.2268L31.4999 22.2197ZM18.302 11.286L23.5193 9.60547L41.4141 17.1642L36.7031 19.0626L18.302 11.2789V11.286ZM25.2279 9.05702L31.0077 7.19371C31.1454 7.13855 31.299 7.13855 31.4366 7.19371L49.3666 14.1126C49.4796 14.1522 49.5779 14.2254 49.6485 14.3222C49.719 14.4191 49.7584 14.5351 49.7614 14.6548C49.7645 14.7746 49.731 14.8925 49.6655 14.9928C49.6 15.0931 49.5056 15.1711 49.3947 15.2165L44.1212 17.3329L43.8118 17.5439C44.2337 17.3259 43.6501 16.8267 43.1368 16.6298L25.2209 9.04999L25.2279 9.05702Z" fill="#EF74AC"/>
<path d="M37.266 20.0818L37.2449 25.1725L39.3121 21.8747C39.3569 21.8029 39.417 21.7418 39.4881 21.6959C39.5593 21.6499 39.6396 21.6201 39.7235 21.6087C39.8074 21.5973 39.8928 21.6045 39.9736 21.6298C40.0544 21.6552 40.1286 21.698 40.191 21.7552L42.3356 23.4779L42.3567 18.0356L37.266 20.0818ZM31.5143 21.1435L35.1566 19.6739C35.3183 19.6739 35.8386 20.0747 35.8597 20.2716L36.0847 27.1975C36.0847 27.7811 36.8582 28.0412 37.1746 27.4787L39.9449 23.049L42.5465 25.1443C42.6349 25.2179 42.7432 25.2635 42.8576 25.275C42.972 25.2866 43.0873 25.2637 43.1885 25.2093C43.2898 25.1549 43.3725 25.0714 43.426 24.9696C43.4795 24.8678 43.5014 24.7524 43.4887 24.6381L43.5169 17.1778C43.5169 16.7981 43.4958 16.77 43.0036 16.552L48.9099 14.1403C49.3599 13.9363 49.7537 14.2668 49.7537 14.6606V33.9195C49.7567 34.032 49.727 34.1429 49.6684 34.239C49.6098 34.3351 49.5246 34.4121 49.4232 34.4609L32.0135 42.786C31.9249 42.8372 31.8241 42.8639 31.7217 42.8633C31.6193 42.8627 31.5189 42.8349 31.4308 42.7826C31.3427 42.7303 31.2702 42.6555 31.2206 42.5659C31.171 42.4763 31.1462 42.3751 31.1487 42.2727V21.699C31.1417 21.4599 31.2823 21.2419 31.5143 21.1435Z" fill="#EF74AC"/>
<path fill-rule="evenodd" clip-rule="evenodd" d="M4.15563 23.9274H19.4629C20.0535 23.9274 20.5246 24.4055 20.5246 25.0032C20.5246 25.2854 20.413 25.5562 20.2141 25.7565C20.0152 25.9567 19.7451 26.0701 19.4629 26.072H4.15563C3.8734 26.0701 3.60335 25.9567 3.40444 25.7565C3.20552 25.5562 3.09389 25.2854 3.09389 25.0032C3.09389 24.4055 3.57203 23.9274 4.15563 23.9274ZM0.822765 20.1094H16.123C16.4083 20.1094 16.682 20.2227 16.8837 20.4245C17.0855 20.6262 17.1988 20.8999 17.1988 21.1852C17.1988 21.4705 17.0855 21.7441 16.8837 21.9459C16.682 22.1476 16.4083 22.261 16.123 22.261H0.822765C0.681222 22.261 0.541086 22.2329 0.410492 22.1783C0.279898 22.1237 0.161448 22.0437 0.0620176 21.943C-0.0374126 21.8422 -0.115842 21.7228 -0.168718 21.5915C-0.221594 21.4602 -0.247864 21.3197 -0.246001 21.1781C-0.246001 20.5875 0.232131 20.1094 0.822765 20.1094ZM0.822765 27.7454H16.123C16.7136 27.7454 17.1918 28.2236 17.1918 28.8212C17.1918 29.1047 17.0792 29.3765 16.8787 29.577C16.6783 29.7774 16.4065 29.89 16.123 29.89H0.822765C0.540525 29.89 0.26974 29.7784 0.0695084 29.5795C-0.130723 29.3805 -0.244144 29.1105 -0.246001 28.8283C-0.246001 28.2306 0.232131 27.7454 0.822765 27.7454Z" fill="#EF74AC"/>
</g>
<defs>
<clipPath id="clip0_957_72">
<rect width="50" height="50" fill="white"/>
</clipPath>
</defs>
</svg>
