<svg width="50" height="50" viewBox="0 0 50 50" fill="none" xmlns="http://www.w3.org/2000/svg">
<path d="M6.25 26.5625H3.125V45.3125H6.25C6.6644 45.3125 7.06183 45.1479 7.35485 44.8549C7.64788 44.5618 7.8125 44.1644 7.8125 43.75V28.125C7.8125 27.7106 7.64788 27.3132 7.35485 27.0201C7.06183 26.7271 6.6644 26.5625 6.25 26.5625ZM45.0844 28.6531C44.536 28.3221 43.9104 28.1405 43.27 28.1265C42.6296 28.1126 41.9967 28.2666 41.4344 28.5734L31.2016 34.0734C31.0869 35.0169 30.6316 35.886 29.9211 36.5173C29.2107 37.1486 28.2941 37.4986 27.3438 37.5016H21.0625C20.8553 37.5016 20.6566 37.4193 20.5101 37.2727C20.3636 37.1262 20.2812 36.9275 20.2812 36.7203C20.2812 36.5131 20.3636 36.3144 20.5101 36.1679C20.6566 36.0214 20.8553 35.9391 21.0625 35.9391H27.3438C28.6359 35.9391 29.6875 34.8875 29.6875 33.5953C29.6858 32.9873 29.4478 32.4038 29.0239 31.9679C28.6 31.5321 28.0233 31.278 27.4156 31.2594C26.9469 31.2547 19.3969 31.2516 19.3969 31.2516L16.7297 28.5859C16.4367 28.2929 16.0394 28.1282 15.625 28.1281H9.375V43.7531H12.1344L17.1875 45.3125C19.2875 45.9875 21.5328 46.875 24.0219 46.875C26.2719 46.875 28.4875 46.1297 30.4016 44.6625L45.2812 34.8141C45.772 34.4785 46.1736 34.0283 46.4513 33.5026C46.729 32.9769 46.8744 32.3914 46.875 31.7969C46.875 30.4953 46.2062 29.3203 45.0844 28.6531Z" fill="#EF74AC"/>
<path d="M25.7812 28.1258L36.5531 23.3133C36.8344 23.1927 37.074 22.9922 37.2424 22.7367C37.4107 22.4811 37.5003 22.1818 37.5 21.8758V9.3758L37.4984 9.3633L25.7812 14.5711V28.1258ZM36.6781 8.01799C36.6344 7.99455 25.6156 3.25236 25.6156 3.25236C25.4213 3.16834 25.2117 3.125 25 3.125C24.7883 3.125 24.5787 3.16834 24.3844 3.25236C24.3844 3.25236 13.3656 7.99455 13.3219 8.01799L25 13.2086L36.6781 8.01799ZM13.4469 23.3133L24.2188 28.1258V14.5711L12.5016 9.3633L12.5 9.3758V21.8758C12.4997 22.1818 12.5893 22.4811 12.7576 22.7367C12.926 22.9922 13.1656 23.1927 13.4469 23.3133Z" fill="#EF74AC"/>
</svg>
