<svg width="30" height="30" viewBox="0 0 30 30" fill="none" xmlns="http://www.w3.org/2000/svg">
<g clip-path="url(#clip0_675_115)">
<path fill-rule="evenodd" clip-rule="evenodd" d="M15 30C23.2843 30 30 23.2843 30 15C30 6.71573 23.2843 0 15 0C6.71573 0 0 6.71573 0 15C0 23.2843 6.71573 30 15 30Z" fill="#57BB63"/>
<path fill-rule="evenodd" clip-rule="evenodd" d="M15.0349 23.1113C13.6047 23.1113 12.261 22.7457 11.092 22.1042L6.57617 23.5392L8.0483 19.1967C7.30577 17.9769 6.87802 16.5465 6.87802 15.0176C6.87802 10.5475 10.5299 6.92383 15.0351 6.92383C19.5397 6.92383 23.1916 10.5475 23.1916 15.0176C23.1916 19.4876 19.5399 23.1113 15.0349 23.1113ZM15.0349 8.21281C11.2532 8.21281 8.17716 11.2654 8.17716 15.0176C8.17716 16.5065 8.66251 17.8854 9.48331 19.0073L8.6267 21.5343L11.2619 20.6967C12.3448 21.4076 13.642 21.8223 15.0349 21.8223C18.816 21.8223 21.8926 18.7699 21.8926 15.0177C21.8926 11.2656 18.816 8.21281 15.0349 8.21281ZM19.1536 16.8816C19.1034 16.7991 18.9701 16.7492 18.7706 16.6501C18.5704 16.551 17.5872 16.0708 17.4042 16.0049C17.2207 15.9388 17.0872 15.9054 16.9541 16.104C16.821 16.3027 16.4378 16.7492 16.3209 16.8816C16.2042 17.0142 16.0877 17.0308 15.8878 16.9315C15.688 16.8323 15.0437 16.6228 14.2798 15.9469C13.6855 15.4211 13.2842 14.772 13.1677 14.5732C13.051 14.3747 13.1553 14.2675 13.2554 14.1687C13.3453 14.0797 13.4553 13.937 13.5554 13.8212C13.6554 13.7053 13.6887 13.6228 13.7551 13.4902C13.822 13.3579 13.7885 13.2421 13.7385 13.1426C13.6885 13.0435 13.2884 12.0672 13.1219 11.6699C12.9554 11.273 12.789 11.3391 12.6722 11.3391C12.5555 11.3391 12.4222 11.3225 12.2889 11.3225C12.1556 11.3225 11.9389 11.3721 11.7556 11.5706C11.5724 11.7692 11.056 12.2492 11.056 13.2253C11.056 14.2016 11.7722 15.1448 11.8724 15.2769C11.9723 15.4091 13.2552 17.4776 15.2876 18.272C17.3208 19.0662 17.3208 18.8012 17.6874 18.7682C18.0535 18.7352 18.8699 18.2884 19.037 17.8252C19.2033 17.3616 19.2033 16.9643 19.1536 16.8816Z" fill="white"/>
</g>
<defs>
<clipPath id="clip0_675_115">
<rect width="30" height="30" fill="white"/>
</clipPath>
</defs>
</svg>
